<?xml version="1.0" encoding="UTF-8" standalone="no"?>
<!-- Generator: Adobe Illustrator 16.0.0, SVG Export Plug-In . SVG Version: 6.00 Build 0)  -->

<svg
   xmlns:dc="http://purl.org/dc/elements/1.1/"
   xmlns:cc="http://creativecommons.org/ns#"
   xmlns:rdf="http://www.w3.org/1999/02/22-rdf-syntax-ns#"
   xmlns:svg="http://www.w3.org/2000/svg"
   xmlns="http://www.w3.org/2000/svg"
   xmlns:sodipodi="http://sodipodi.sourceforge.net/DTD/sodipodi-0.dtd"
   xmlns:inkscape="http://www.inkscape.org/namespaces/inkscape"
   version="1.1"
   x="0px"
   y="0px"
   width="664.02802"
   height="208.929"
   viewBox="161.418 189.631 664.02801 208.929"
   enable-background="new 161.418 189.631 664.026 208.929"
   xml:space="preserve"
   id="svg2"
   inkscape:version="0.91 r13725"
   sodipodi:docname="Urban Dictionary.svg"><metadata
     id="metadata89"><rdf:RDF><cc:Work
         rdf:about=""><dc:format>image/svg+xml</dc:format><dc:type
           rdf:resource="http://purl.org/dc/dcmitype/StillImage" /><dc:title></dc:title></cc:Work></rdf:RDF></metadata><defs
     id="defs87" /><sodipodi:namedview
     pagecolor="#ffffff"
     bordercolor="#666666"
     borderopacity="1"
     objecttolerance="10"
     gridtolerance="10"
     guidetolerance="10"
     inkscape:pageopacity="0"
     inkscape:pageshadow="2"
     inkscape:window-width="1680"
     inkscape:window-height="931"
     id="namedview85"
     showgrid="false"
     inkscape:zoom="0.46684919"
     inkscape:cx="332.013"
     inkscape:cy="104.4645"
     inkscape:window-x="0"
     inkscape:window-y="1"
     inkscape:window-maximized="1"
     inkscape:current-layer="Layer_1" /><g
     id="Layer_1"><g
       id="g10"
       transform="translate(0.00109927,0)"><g
         id="logo-urban"
         style="fill:#1d2439;fill-opacity:1"><g
           transform="translate(35.5879,334.2124)"
           id="g13"
           style="fill:#1d2439;fill-opacity:1"><path
             d="m 143.379,-66.543 c 0,0 4.387,4.201 5.265,8.402 0,4.202 0,7.563 0,11.764 0,3.361 -1.755,9.243 -1.755,13.444 0,5.042 0.877,6.724 1.755,9.244 0.878,2.52 0.877,2.521 0.877,6.722 0,4.201 -0.877,20.167 -0.877,20.167 l -0.877,12.604 2.632,5.882 3.51,-3.361 c 0,0 0.878,2.521 2.632,5.042 1.755,2.521 8.775,5.042 8.775,5.042 l 8.774,2.521 28.079,-10.923 c 0,0 3.51,2.521 6.143,3.36 2.632,0.841 11.406,5.042 15.794,5.882 4.387,0.841 7.02,1.681 10.529,1.681 3.509,0 7.02,-0.84 10.529,-2.521 3.51,-0.84 7.897,-2.521 7.897,-2.521 L 254.816,15.804 233.757,2.36 229.37,5.719 c 0,0 -1.755,-14.284 -2.632,-21.846 -0.877,-7.563 -2.632,-17.646 -2.632,-17.646 l 2.632,-1.681 c 0,0 -1.755,-13.444 -2.632,-16.806 0,-3.361 1.755,-11.764 1.755,-13.444 0,-1.68 0.877,-6.722 0.877,-6.722 l 0,-4.201 -6.142,-2.521 -7.02,2.521 -12.285,-5.042 -11.407,5.882 0.877,6.723 19.304,0 7.897,5.042 0,5.042 -2.632,2.521 c 0,0 -0.878,8.402 -0.878,14.285 -0.877,5.882 -0.877,12.604 -1.754,19.326 -0.878,8.402 -2.633,15.965 -5.265,22.688 0,0 -10.529,5.881 -15.794,8.402 -7.897,2.521 -14.917,2.521 -14.917,2.521 L 164.438,5.721 c -1.754,-10.923 -3.51,-20.166 -4.387,-27.729 -0.878,-2.521 -0.878,-3.361 0,-6.722 0,-2.521 1.754,-11.764 1.754,-11.764 l -2.632,-2.521 c 0,0 1.755,-10.084 2.632,-13.444 0.878,-3.361 0.878,-6.723 1.755,-9.243 0,-2.521 0.877,-5.042 0.877,-5.042 l -1.754,-5.881 c 0,0 -7.02,-2.521 -10.529,-3.361 -2.633,-0.84 -7.02,-1.681 -7.02,-1.681 0,0 -5.265,0 -7.02,0 -2.632,0 -7.02,0.84 -7.02,0.84 l -5.265,5.042 c 0,0 0.878,2.521 1.755,3.361 0.877,1.68 0.877,1.68 0.877,1.68 l 2.632,0.84 3.51,4.202 c 0,0 3.51,0 6.142,-0.84 0.002,0.838 2.634,-0.001 2.634,-0.001"
             id="path15"
             style="fill:#1d2439;fill-opacity:1"
             inkscape:connector-curvature="0" /></g><path
           d="m 384.381,351.008 c 0,0 -0.877,0.84 -2.632,1.68 -2.633,0.841 -6.142,0.841 -6.142,0.841 l -3.51,-4.201 c 0,0 2.632,-8.403 1.755,-16.806 -1.755,-8.402 -7.897,-19.326 -7.897,-19.326 l 14.917,-12.604 c 0,0 3.509,-10.925 3.509,-12.605 0.878,-1.68 -0.877,-6.722 -0.877,-10.923 0,-4.202 0,-5.882 0,-5.882 l -12.285,-13.444 c 0,0 -11.407,-3.361 -15.794,-4.202 -4.387,-0.84 -8.774,0 -8.774,0 l -3.51,-4.201 -2.632,3.361 c 0,0 -14.917,-1.681 -20.182,-1.681 -5.265,0 -8.774,0.84 -12.284,0.84 -3.51,0.84 -8.774,1.68 -8.774,1.68 l -1.755,0 c 0,0 -0.877,2.521 0,5.882 0.877,3.361 1.755,5.042 1.755,5.042 l 15.794,4.201 1.755,-2.521 1.755,0 c 0,0 0,4.202 0.877,8.403 0,4.201 0.877,7.562 0.877,7.562 l -3.51,6.723 c 0,0 2.632,15.965 2.632,21.007 0,5.881 -0.877,7.563 -0.877,7.563 l 2.632,5.042 -2.632,25.208 -18.426,5.041 0,7.563 6.142,4.201 c 0,0 14.917,-2.521 20.181,-2.521 4.387,0 8.775,0.841 8.775,0.841 l 1.754,-1.68 c 0,0 1.755,0.839 4.387,0.839 2.633,0.841 4.388,0.841 4.388,0.841 l 5.265,-5.042 -2.632,-2.521 0,-2.521 c 0,0 -4.387,0 -7.02,0 -2.632,0 -8.774,-0.84 -8.774,-0.84 l -2.632,-2.521 c 0,0 0,-4.201 0,-5.882 0,-1.682 0,-13.444 0,-13.444 l 0.877,0 0,-1.682 0.877,0 0,-4.2 0,-0.841 0,-3.36 -0.877,0.839 -0.877,-9.242 1.754,-2.521 19.304,4.201 10.529,9.243 2.632,12.604 c 0,0 -4.387,5.041 -0.877,15.125 2.632,8.402 7.02,13.444 7.02,13.444 l 2.632,-2.521 3.509,3.36 2.632,-1.681 c 1.755,0.841 4.388,1.681 8.775,1.681 l 3.51,-10.924 -7.019,-2.518 z M 362.445,296.39 c 0,0 -9.652,2.521 -12.284,3.361 -2.632,0.841 -3.51,0.841 -5.265,1.68 -1.755,0 -2.632,0 -2.632,0 l -0.878,2.521 -4.387,-5.04 -5.265,0 c 0,0 -0.877,-10.084 -0.877,-15.126 0,-5.882 -0.877,-12.604 -0.877,-12.604 l 1.754,-0.84 c 0,0 6.143,-0.84 7.897,-0.84 2.632,0 8.774,-0.841 8.774,-0.841 l 1.755,0.841 7.897,-0.841 8.774,7.563 c 0,0 -0.877,2.521 -0.877,3.361 0,0.84 -0.877,2.521 -0.877,2.521 l 1.755,1.681 0,4.201 -4.387,8.402 z"
           id="path17"
           style="fill:#1d2439;fill-opacity:1"
           inkscape:connector-curvature="0" /><path
           d="m 508.887,278.93 c 0,0 -0.877,-6.722 -0.877,-10.924 -0.877,-4.202 -0.877,-7.563 -0.877,-7.563 l -8.775,-10.923 c 0,0 -1.755,-1.681 -3.51,-5.042 -1.755,-3.361 -4.387,-10.083 -4.387,-10.083 l -7.897,-2.521 c 0,0 -1.755,0 -3.51,0 -1.755,0 -3.509,-0.84 -6.142,-0.84 -2.632,0 -3.51,0 -4.387,0 -0.877,0.84 -1.755,0 -3.51,0.84 -1.755,0 -5.265,1.681 -8.775,3.361 -3.509,1.681 -7.019,5.882 -8.774,6.722 -0.878,0.84 -2.633,3.361 -2.633,3.361 l -5.265,0 -1.754,-3.361 4.387,-21.847 -2.633,-7.563 2.633,-10.923 c 0,0 -1.755,-3.361 -2.633,-5.042 -0.877,-1.68 -1.754,-4.201 -1.754,-4.201 0,0 -8.775,-0.84 -14.917,-0.84 -9.652,-0.84 -15.794,-2.521 -17.549,-1.681 -2.632,0.84 -3.509,2.521 -5.265,5.042 -0.877,2.521 -1.755,5.042 -1.755,5.042 0,0 2.632,5.042 7.02,7.563 4.388,2.521 6.143,3.361 8.775,4.201 2.632,0.84 7.02,1.681 7.02,1.681 0,0 2.632,10.083 3.51,15.125 0.877,5.042 1.755,7.563 1.755,10.083 0,3.361 -0.877,13.445 -1.755,21.847 -0.877,8.403 -0.877,11.765 -0.877,17.646 0,5.881 0.877,10.924 1.755,15.125 0.878,4.201 1.755,6.723 1.755,10.924 0.877,4.201 0,10.083 -0.877,15.125 0,5.041 -1.755,17.645 -1.755,17.645 l 9.652,0 4.388,-4.2 7.896,0 3.51,5.041 31.589,0 c 0,0 7.02,-4.2 11.406,-10.083 4.388,-5.042 6.143,-8.402 8.775,-14.285 2.632,-5.881 4.387,-11.764 6.142,-17.646 0.877,-5.882 2.632,-15.125 2.632,-15.125 l -1.757,-1.681 z m -19.304,19.326 c -0.877,4.202 -1.755,9.244 -1.755,9.244 0,0 -1.755,1.68 -4.387,5.041 -2.633,3.361 -4.388,6.723 -4.388,6.723 0,0 -2.633,0.841 -5.265,3.36 -2.632,1.681 -3.51,3.361 -3.51,3.361 0,0 -3.51,0 -6.142,-1.681 -2.633,-1.681 -7.897,-4.2 -14.04,-9.242 -7.019,-4.202 -11.406,-11.765 -11.406,-11.765 0,0 0.877,-1.681 0.877,-5.042 0,-3.36 -0.877,-2.521 -0.877,-5.881 0,-3.361 0,-5.042 1.754,-11.765 1.755,-6.722 2.633,-10.083 7.897,-18.486 5.265,-9.243 8.774,-12.604 8.774,-12.604 l 0,-0.841 c 0,0 0.877,0 1.755,0 1.754,0 0.877,0 2.632,0 1.755,0 1.755,-0.84 4.387,-0.84 2.633,0 0.878,0.84 5.266,0.84 4.387,0.841 4.387,0 4.387,0 0,0 2.632,4.202 5.264,7.563 2.633,2.521 5.265,6.723 5.265,6.723 0,0 0,1.681 0.878,5.042 0,3.361 0.877,6.722 0.877,7.563 0,0.841 -0.877,2.521 -0.877,2.521 0,0 0.877,2.521 1.755,5.882 0.877,3.361 1.755,6.722 1.755,6.722 0,0 0.002,3.362 -0.876,7.562 z"
           id="path19"
           style="fill:#1d2439;fill-opacity:1"
           inkscape:connector-curvature="0" /><g
           transform="translate(474.7412,344.7549)"
           id="g21"
           style="fill:#1d2439;fill-opacity:1"><path
             d="m 89.562,-85.945 c 0,0 -2.632,2.521 -2.632,3.362 -0.878,0.84 -1.755,0.84 -2.633,1.68 -0.878,0.841 -0.878,0.841 -2.632,1.68 l -5.265,4.202 -7.897,0 -4.388,-10.083 c -0.877,-1.681 -1.755,-2.521 -1.755,-4.202 0,-1.681 0,-6.722 0.878,-11.764 0.877,-5.042 1.755,-7.563 1.755,-7.563 0,0 3.51,-2.521 7.02,-5.042 3.51,-1.681 8.774,-5.042 11.406,-5.882 2.633,-0.841 3.511,-0.841 4.388,-1.681 0.877,0 1.755,0 1.755,0 0,0 0,0 0,-0.841 0,-0.84 0.878,-0.84 2.633,-0.84 1.754,0 4.387,0 6.142,0 2.633,0 2.633,0.84 5.265,0.84 2.633,0 6.143,0 7.897,0 0.877,0 1.755,0 2.633,0 1.754,0.841 5.265,1.681 7.019,2.521 1.755,0.84 14.04,4.201 14.04,4.201 0,0 1.754,1.681 3.51,5.042 2.632,3.361 4.387,5.042 4.387,5.042 0,0 0.878,10.083 0.878,12.604 0,1.68 0.877,14.285 0.877,15.125 0,0.84 0,0 0,1.681 0,1.68 0,3.361 0,5.042 0,1.68 0,9.243 0,9.243 l -1.755,0 c 0,0 0.878,4.201 0.878,6.723 0,3.361 0.877,6.722 0.877,6.722 0,0 0,0.841 -0.877,1.681 -0.878,0.84 -0.878,1.682 -0.878,1.682 0,0 2.633,2.521 4.387,4.201 0.878,1.681 3.511,4.2 3.511,4.2 0,0 2.632,0 4.387,-0.84 2.633,0 7.021,-0.84 7.897,-0.84 0.876,0 2.632,0 2.632,0 0,0 0,6.722 0.878,10.083 0,3.361 0.878,7.563 0.878,7.563 l -7.897,8.402 c 0,0 -3.51,0 -6.143,0.841 -2.632,0 -7.896,0.84 -7.896,0.84 0,0 -5.265,-3.36 -7.897,-5.041 -2.632,-1.681 -7.02,-5.042 -7.02,-5.042 l -13.162,8.402 -13.164,4.201 c 0,0 -8.774,0 -14.917,0 -5.265,0 -8.774,0 -12.284,-0.84 -3.51,0 -9.652,-0.84 -9.652,-0.84 0,0 -4.387,-5.041 -6.143,-6.722 -1.754,-1.682 -4.387,-5.043 -4.387,-5.043 0,0 -1.755,-8.401 -2.632,-15.125 -0.878,-6.722 0,-13.444 0,-13.444 0,0 1.754,-3.36 3.51,-5.882 1.755,-2.521 4.387,-6.722 4.387,-6.722 0,0 13.162,-4.202 16.672,-5.042 3.51,-0.84 5.265,-1.681 7.897,-1.681 2.632,0 1.754,0 6.142,-0.84 3.51,-0.84 8.774,-3.361 12.284,-5.042 2.633,-1.681 4.388,-2.521 5.265,-3.361 0.878,-0.841 1.755,-1.68 1.755,-1.68 0,0 0.878,0 2.633,0 1.755,0 4.388,-1.681 7.02,-2.521 1.755,-0.841 3.51,-0.841 3.51,-0.841 0,0 0.877,-0.84 2.632,-2.521 1.756,-0.84 2.633,-1.68 2.633,-1.68 l 0,-7.563 c 0,0 -4.388,-3.361 -10.529,-5.882 -6.142,-2.521 -9.652,-4.202 -12.284,-5.042 -3.51,-0.84 -4.388,-1.681 -7.02,-1.681 -3.51,0 -6.143,0.84 -7.021,1.681 -1.754,0 -3.509,0.84 -5.265,1.68 -0.877,0.84 -1.754,0.84 -2.632,2.521 -0.877,1.681 -1.755,2.521 -1.755,3.361 0,0.84 -0.878,0.84 -0.878,0.84 0,0 0,2.521 0.878,5.042 0.878,2.521 3.51,5.042 3.51,5.882 0.876,0.003 1.754,0.843 1.754,0.843 m -5.265,31.93 -13.161,8.402 0.877,12.604 5.265,7.563 c 0,0 16.671,0 19.304,0 2.632,0 4.388,0 4.388,0 0,0 4.387,-0.841 7.02,-2.521 2.632,-0.84 7.02,-2.521 7.896,-2.521 0.878,0 0.878,0 0.878,0 l 7.897,-12.604 c 0,0 -0.878,-4.201 -0.878,-8.402 0,-3.361 0,-8.403 0,-8.403 l -7.02,0 c 0,0 -5.265,1.681 -9.652,2.521 -4.387,0.841 -3.51,1.681 -7.02,2.521 -3.51,0.84 -5.265,0 -7.896,0 -2.633,0 -4.388,0 -7.02,0 -1.756,0 -2.633,0 -2.633,0"
             id="path23"
             style="fill:#1d2439;fill-opacity:1"
             inkscape:connector-curvature="0" /></g><g
           id="g25"
           style="fill:#1d2439;fill-opacity:1"><g
             transform="translate(582.1514,389.7217)"
             id="g27"
             style="fill:#1d2439;fill-opacity:1"><path
               d="m 76.398,-168.696 -11.406,9.243 1.755,5.882 0,0 c 0,0 3.51,0.84 5.265,1.68 2.632,0.841 4.387,0.841 6.142,1.681 0.877,0 2.633,0.84 2.633,0.84 l 2.633,2.521 c 0,0 -1.756,5.042 -1.756,5.883 0,0.84 0,0.84 0,0.84 l 2.633,6.722 2.632,5.882 -6.142,0 0,7.563 5.265,6.722 c 0,0 0,5.042 -1.755,10.084 -1.755,5.041 -3.51,6.722 -3.51,6.722 l 1.755,1.681 c 0,0 -2.633,9.242 -2.633,10.083 0,0.84 0,0.84 0,0.84 l 2.633,4.202 c 0,0 -0.878,4.202 -0.878,5.882 0,1.681 0,3.361 0,3.361 l -10.529,5.042 -5.265,10.083 c 0,0 3.51,1.681 7.02,2.521 3.51,0.841 4.388,1.681 8.774,1.681 4.388,-0.84 6.143,-2.521 6.143,-2.521 0,0 3.51,0.84 6.143,1.681 2.632,0.84 6.142,1.681 6.142,1.681 l 0,-0.841 1.755,1.682 2.633,-4.202 c 0,0 0,0 1.754,0 1.756,0.84 8.775,1.681 8.775,1.681 l 5.265,-4.202 0,-5.041 c 0,0 0,0 -1.755,-1.681 -1.756,-1.68 -2.633,-4.201 -2.633,-4.201 0,0 -2.632,0.84 -4.388,0 -1.754,0 -9.651,-3.361 -9.651,-3.361 0,0 -1.755,-23.528 -1.755,-27.729 0,-4.201 -1.755,-21.007 -1.755,-21.007 l 1.755,-1.681 c 0,0 -0.877,-10.083 -1.755,-11.764 0,-1.681 0,-2.521 0,-3.361 0,-1.681 0.878,-2.521 0.878,-2.521 0,0 5.265,6.722 7.896,10.923 2.633,4.202 7.02,13.444 7.897,16.806 1.754,3.362 3.51,6.722 4.387,9.244 1.756,2.521 5.265,8.402 5.265,8.402 0,0 0,-9.243 -0.877,-15.125 0,-5.882 -2.632,-10.924 -3.51,-14.285 -0.878,-3.361 -5.265,-11.764 -5.265,-11.764 l 1.754,-5.882 -8.773,-8.402 3.509,-10.083 -6.142,-5.882 c 0,0 -0.877,0 -3.51,0 -2.632,0 -4.388,-0.84 -6.143,-0.84 -1.754,-0.84 -3.51,-0.84 -3.51,-0.84 l -1.755,1.681 c 0,0 -4.387,-0.84 -7.896,-1.681 -1.756,-1.685 -6.144,-2.525 -6.144,-2.525"
               id="path29"
               style="fill:#1d2439;fill-opacity:1"
               inkscape:connector-curvature="0" /></g><g
             transform="translate(639.1406,301.7031)"
             id="g31"
             style="fill:#1d2439;fill-opacity:1"><path
               d="m 69.415,-6.718 c 0,0 5.265,2.521 7.019,2.521 1.756,0 6.143,0 6.143,0 l 0,0.841 7.897,0 0,7.563 3.51,5.042 -1.755,1.68 c 0,0 0,0 0,0.841 l 0.877,0 0.878,16.806 c 0,0 -1.755,1.681 -2.632,3.36 -0.878,1.681 -2.633,4.201 -2.633,4.201 0,0 -3.51,0 -7.02,-1.68 -3.51,-1.681 -5.266,-5.041 -5.266,-5.041 l 0,-5.042 -3.509,-4.202 -3.51,0 0,-9.243 3.51,-3.361 c 0,0 -1.756,-2.52 -2.633,-4.2 -0.877,-1.68 -1.755,-3.361 -1.755,-3.361 0,0 0.878,-4.202 1.755,-5.883 -0.876,-0.002 -0.876,-0.842 -0.876,-0.842"
               id="path33"
               style="fill:#1d2439;fill-opacity:1"
               inkscape:connector-curvature="0" /></g><g
             transform="translate(654.9531,302.5469)"
             id="g35"
             style="fill:#1d2439;fill-opacity:1"><path
               d="m 67.477,-8.271 6.143,0 c 0,0 0,-3.361 0,-6.722 0,-4.202 0.877,-8.403 0.877,-10.924 0,-2.521 -0.877,-3.362 -0.877,-5.042 0,-1.681 0,-1.681 0,-4.202 0.877,-2.521 1.755,-7.562 2.633,-9.243 0,-2.521 0,-4.202 0,-4.202 l -1.756,0 1.756,-0.84 c 0,0 0,-2.521 -0.878,-5.882 -0.878,-2.521 -0.878,-5.042 -0.878,-5.042 0,0 0.878,-0.84 1.756,-1.68 0.877,-0.84 1.754,-1.681 1.754,-1.681 l 7.897,1.681 c 0,0 2.632,-1.681 4.388,-4.202 1.755,-2.521 2.632,-4.202 3.509,-5.042 0.878,-0.84 0.878,-2.521 0.878,-2.521 0,0 -3.51,-2.521 -5.265,-3.361 -1.755,-0.841 -4.388,-3.362 -4.388,-3.362 0,0 -0.877,0 -4.387,0 -3.51,0.84 -7.02,0.84 -10.529,1.681 -3.51,0 -4.387,0.84 -7.02,0 -2.633,-0.84 -5.265,-1.681 -5.265,-1.681 0,0 -5.265,1.681 -7.021,2.521 -1.754,0 -4.387,1.681 -4.387,1.681 l -1.755,6.723 3.51,5.042 c 0,0 2.632,0.84 6.143,1.681 2.632,0.84 5.265,1.68 6.142,1.68 l 0.877,-0.84 c 0,0 0.878,0.84 1.756,1.68 0.877,0.84 1.755,1.681 1.755,1.681 0,0 0.878,5.042 0.878,10.083 0.877,5.044 1.754,10.085 1.754,12.606 0,2.521 0.878,2.521 0,5.042 -1.754,0.84 -3.51,10.083 -3.51,10.083 0,0 0.878,2.521 1.756,5.882 0.877,3.361 1.754,6.722 1.754,6.722"
               id="path37"
               style="fill:#1d2439;fill-opacity:1"
               inkscape:connector-curvature="0" /></g></g></g><g
         id="logo-dictionary-background"
         transform="translate(271.3555,255.4404)"><path
           d="m 114.486,78.418 439.603,14.285 0,50.417 -439.603,-14.285 0,-50.417 z"
           id="path40"
           inkscape:connector-curvature="0" /></g><g
         id="logo-dictionary"><g
           transform="translate(411.3711,229.9551)"
           id="g43"><path
             d="m 97.327,125.318 c 0,-2.521 1.755,-4.201 4.388,-4.201 l 15.794,0 c 2.633,0 4.388,1.681 4.388,4.201 l 0,3.361 -6.143,0.841 0,-4.202 -12.284,0 0,11.764 12.284,0 0,-4.2 6.143,1.681 0,3.36 c 0,2.521 -1.755,4.201 -4.388,4.201 l -15.794,0 c -2.633,0 -4.388,-1.681 -4.388,-4.201 l 0,-12.605 z"
             id="path45"
             inkscape:connector-curvature="0"
             style="fill:#efff00" /></g><g
           transform="translate(377.2852,235.9395)"
           id="g47"><path
             d="m 101.505,114.306 6.143,0 0,21.007 -6.143,0 0,-21.007 z"
             id="path49"
             inkscape:connector-curvature="0"
             style="fill:#efff00" /></g><g
           transform="translate(500.7227,233.7773)"
           id="g51"><path
             d="m 86.378,118.284 6.142,0 0,21.007 -6.142,0 0,-21.007 z"
             id="path53"
             inkscape:connector-curvature="0"
             style="fill:#efff00" /></g><g
           transform="translate(467.3145,234.3633)"
           id="g55"><path
             d="m 90.472,117.206 6.143,0 0,21.007 -6.143,0 0,-21.007 z"
             id="path57"
             inkscape:connector-curvature="0"
             style="fill:#efff00" /></g><g
           transform="translate(456.7441,234.5479)"
           id="g59"><path
             d="m 91.768,116.867 25.445,0.839 0,4.203 -25.445,0 0,-5.042 z"
             id="path61"
             inkscape:connector-curvature="0"
             style="fill:#efff00" /></g><g
           transform="translate(588.0039,230.9922)"
           id="g63"><path
             d="m 75.682,123.41 15.794,12.604 0,-11.764 6.143,0 0,21.006 -3.51,0 -1.755,0 -14.917,-13.444 -0.878,12.604 -6.142,0 0.877,-21.007 4.388,0 z"
             id="path65"
             inkscape:connector-curvature="0"
             style="fill:#efff00" /></g><path
           d="m 635.984,353.906 -19.304,-0.84 c -2.632,0 -4.388,1.681 -4.388,4.201 l 0,13.445 c 0,2.521 1.756,4.201 4.388,4.201 l 19.304,0 c 2.633,0 4.388,-1.681 4.388,-4.201 l 0,-12.604 c 0,-2.521 -1.755,-4.202 -4.388,-4.202 z m -2.631,15.966 -14.917,-0.841 0,-10.923 14.917,0 0,11.764 z"
           id="path67"
           inkscape:connector-curvature="0"
           style="fill:#efff00" /><g
           transform="translate(647.8594,229.9482)"
           id="g69"><path
             d="m 68.346,125.331 12.285,21.007 -7.02,0 -2.633,-4.201 -12.284,0 -2.633,4.201 -6.143,0 13.162,-21.007 5.266,0 0,0 z m 0.878,11.764 -3.51,-6.722 -3.51,5.882 7.02,0 0,0.84 z"
             id="path71"
             inkscape:connector-curvature="0"
             style="fill:#efff00" /></g><g
           transform="translate(676.4063,228.8828)"
           id="g73"><path
             d="m 64.848,127.292 5.266,0 0.876,0 14.918,0 c 1.754,0 3.509,1.681 3.509,3.36 l 0,5.883 c 0,1.681 -1.755,3.361 -3.509,3.361 l -2.633,0 9.651,7.563 -8.774,0 -8.774,-7.563 -3.51,0 0,7.563 -6.143,0 -0.877,-20.167 z m 6.141,4.201 0,4.201 11.407,0 c 0.878,0 0.878,0 0.878,-0.84 l 0,-2.521 c 0,-0.84 0,-0.84 -0.878,-0.84 l -11.407,0 z"
             id="path75"
             inkscape:connector-curvature="0"
             style="fill:#efff00" /></g><g
           transform="translate(715.5215,228.1328)"
           id="g77"><path
             d="m 60.054,128.672 8.775,0 7.019,7.563 7.021,-6.722 7.897,0 -12.286,10.924 0,9.242 -6.142,0 0,-9.242 -12.284,-11.765 z"
             id="path79"
             inkscape:connector-curvature="0"
             style="fill:#efff00" /></g><g
           transform="translate(331.832,236.7314)"
           id="g81"><path
             d="m 107.075,112.848 14.04,0 c 6.142,0 10.53,5.042 10.53,10.084 l 0,0.84 c 0,5.883 -5.265,10.084 -10.53,10.084 l -10.53,0 -3.51,0 -2.632,0 0,-21.008 2.632,0 z m 3.51,15.966 8.775,0 c 2.632,0 5.265,-2.521 5.265,-5.042 l 0,-0.84 c 0,-2.521 -2.633,-5.042 -5.265,-5.042 l -8.775,-0.84 0,11.764 z"
             id="path83"
             inkscape:connector-curvature="0"
             style="fill:#efff00" /></g></g></g></g></svg>